<svg version="1.1" preserveAspectRatio="none" xmlns="http://www.w3.org/2000/svg" width="500" height="500" viewBox="0 0 500 500"><rect width="100%" height="100%" fill="#FFFFFF" fill-opacity="1"/><svg viewBox="53.7165 100.2917 391.686 227.04" width="333" height="193.02277845008504" x="83.5px" y="153.4886px" xmlns="http://www.w3.org/2000/svg" xmlns:xlink="http://www.w3.org/1999/xlink" preserveAspectRatio="none"><defs></defs><style>.companyName {fill:#285380;fill-opacity:1;}.icon3 {fill:#E7A0AE;fill-opacity:1;}.icon3-str {stroke:#E7A0AE;stroke-opacity:1;}.shape {fill:#F9E9ED;fill-opacity:1;}.text {fill:#285380;fill-opacity:1;}</style><g opacity="1" transform="rotate(0 122.9096 100.2917)">
<svg width="253.2998" height="227.04" x="122.9096" y="100.2917" version="1.1" preserveAspectRatio="none" viewBox="5.976081848144531 15.80335807800293 188.02392578125 168.53155517578125">
  <g transform="matrix(1 0 0 1 0 0)" ><g><path d="M91.052 173.189C119.033 208.059 194 154.166 194 107.109 194 72.067 160 19 113.041 16 71.147 13.324 9.093 38.026 6.094 86.084S58 132 91.052 173.189z" data-color="1" class="shape"></path></g></g>
</svg>
</g><g opacity="1" transform="rotate(0 167.3805 253.2117)">
<svg width="164.3579" height="13.2" x="167.3805" y="253.2117" version="1.1" preserveAspectRatio="none" viewBox="3.96 -28.32 426.32000000000005 34.24">
  <g transform="matrix(1 0 0 1 0 0)" class="text"><path id="id-6izo4zJp16" d="M15.80 0.32Q10.20 0.32 7.08-2.88Q3.96-6.08 3.96-12.08L3.96-12.08L3.96-28L7.96-28L7.96-12.24Q7.96-3.24 15.84-3.24L15.84-3.24Q19.68-3.24 21.72-5.46Q23.76-7.68 23.76-12.24L23.76-12.24L23.76-28L27.64-28L27.64-12.08Q27.64-6.04 24.52-2.86Q21.40 0.32 15.80 0.32L15.80 0.32Z M57.92-28L61.92-28L61.92 0L58.64 0L41.84-20.88L41.84 0L37.84 0L37.84-28L41.12-28L57.92-7.12L57.92-28Z M72.32 0L72.32-28L76.32-28L76.32 0L72.32 0Z M92.28 0L92.28-24.52L82.68-24.52L82.68-28L105.84-28L105.84-24.52L96.24-24.52L96.24 0L92.28 0Z M116.20-3.48L132.52-3.48L132.52 0L112.20 0L112.20-28L131.96-28L131.96-24.52L116.20-24.52L116.20-15.92L130.24-15.92L130.24-12.52L116.20-12.52L116.20-3.48Z M141 0L141-28L152.80-28Q157.24-28 160.68-26.24Q164.12-24.48 166.02-21.30Q167.92-18.12 167.92-14L167.92-14Q167.92-9.88 166.02-6.70Q164.12-3.52 160.68-1.76Q157.24 0 152.80 0L152.80 0L141 0ZM145-3.48L152.56-3.48Q155.96-3.48 158.54-4.80Q161.12-6.12 162.52-8.50Q163.92-10.88 163.92-14L163.92-14Q163.92-17.12 162.52-19.50Q161.12-21.88 158.54-23.20Q155.96-24.52 152.56-24.52L152.56-24.52L145-24.52L145-3.48Z M175.64-5.24Q176.76-5.24 177.50-4.46Q178.24-3.68 178.24-2.52L178.24-2.52Q178.24-1.92 178.10-1.36Q177.96-0.80 177.56 0.36L177.56 0.36L175.68 5.92L173.16 5.92L174.64-0.04Q173.88-0.32 173.42-0.98Q172.96-1.64 172.96-2.52L172.96-2.52Q172.96-3.72 173.72-4.48Q174.48-5.24 175.64-5.24L175.64-5.24Z M234.84-28L238.64-28L229.28 0L225.08 0L217.44-22.36L209.80 0L205.52 0L196.16-28L200.28-28L207.84-5.24L215.72-28L219.40-28L227.12-5.12L234.84-28Z M249.52-3.48L265.84-3.48L265.84 0L245.52 0L245.52-28L265.28-28L265.28-24.52L249.52-24.52L249.52-15.92L263.56-15.92L263.56-12.52L249.52-12.52L249.52-3.48Z M295.24 0.32Q292.08 0.32 289.14-0.66Q286.20-1.64 284.52-3.20L284.52-3.20L286-6.32Q287.60-4.88 290.10-3.98Q292.60-3.08 295.24-3.08L295.24-3.08Q298.72-3.08 300.44-4.26Q302.16-5.44 302.16-7.40L302.16-7.40Q302.16-8.84 301.22-9.74Q300.28-10.64 298.90-11.12Q297.52-11.60 295-12.20L295-12.20Q291.84-12.96 289.90-13.72Q287.96-14.48 286.58-16.06Q285.20-17.64 285.20-20.32L285.20-20.32Q285.20-22.56 286.38-24.36Q287.56-26.16 289.96-27.24Q292.36-28.32 295.92-28.32L295.92-28.32Q298.40-28.32 300.80-27.68Q303.20-27.04 304.92-25.84L304.92-25.84L303.60-22.64Q301.84-23.76 299.84-24.34Q297.84-24.92 295.92-24.92L295.92-24.92Q292.52-24.92 290.82-23.68Q289.12-22.44 289.12-20.48L289.12-20.48Q289.12-19.04 290.08-18.14Q291.04-17.24 292.46-16.74Q293.88-16.24 296.32-15.68L296.32-15.68Q299.48-14.92 301.40-14.16Q303.32-13.40 304.70-11.84Q306.08-10.28 306.08-7.64L306.08-7.64Q306.08-5.44 304.88-3.62Q303.68-1.80 301.24-0.74Q298.80 0.32 295.24 0.32L295.24 0.32Z M319.08 0L319.08-24.52L309.48-24.52L309.48-28L332.64-28L332.64-24.52L323.04-24.52L323.04 0L319.08 0Z M358.52 0L355.44-7L340.56-7L337.48 0L333.36 0L346.04-28L350.00-28L362.72 0L358.52 0ZM341.96-10.20L354.04-10.20L348.00-23.92L341.96-10.20Z M388.96-28L392.96-28L392.96 0L389.68 0L372.88-20.88L372.88 0L368.88 0L368.88-28L372.16-28L388.96-7.12L388.96-28Z M403.36 0L403.36-28L415.16-28Q419.60-28 423.04-26.24Q426.48-24.48 428.38-21.30Q430.28-18.12 430.28-14L430.28-14Q430.28-9.88 428.38-6.70Q426.48-3.52 423.04-1.76Q419.60 0 415.16 0L415.16 0L403.36 0ZM407.36-3.48L414.92-3.48Q418.32-3.48 420.90-4.80Q423.48-6.12 424.88-8.50Q426.28-10.88 426.28-14L426.28-14Q426.28-17.12 424.88-19.50Q423.48-21.88 420.90-23.20Q418.32-24.52 414.92-24.52L414.92-24.52L407.36-24.52L407.36-3.48Z"/></g>
</svg>
</g><g opacity="1" transform="rotate(0 53.7165 163.2117)">
<svg width="391.686" height="60" x="53.7165" y="163.2117" version="1.1" preserveAspectRatio="none" viewBox="0.48 -31.8 211.76000000000002 32.44">
  <g transform="matrix(1 0 0 1 0 0)" class="companyName"><path id="id-D6z1nYkh13" d="M18.40-5L18.88-6.48L19.64-6.48L18.72-3.56Q18.04-1.36 16.76-0.40Q15.48 0.56 14.08 0.56L14.08 0.56Q12.84 0.56 12.20-0.08Q11.56-0.72 11.56-1.92L11.56-1.92Q11.56-3.04 12.08-5.04L12.08-5.04L12.64-7.08Q10.76-3.04 8.80-1.24Q6.84 0.56 4.64 0.56L4.64 0.56Q2.68 0.56 1.58-0.76Q0.48-2.08 0.48-4.72L0.48-4.72Q0.48-8.04 2.22-11.92Q3.96-15.80 6.94-18.46Q9.92-21.12 13.40-21.12L13.40-21.12Q14.20-21.12 14.88-20.60Q15.56-20.08 15.84-19.20L15.84-19.20L17.84-26.68Q18-27.20 18-27.76L18-27.76Q18-28.56 17.38-28.94Q16.76-29.32 15.28-29.32L15.28-29.32L15.52-30.16Q17.64-30.20 19.34-30.60Q21.04-31 22.60-31.80L22.60-31.80L14.76-3.40Q14.52-2.44 14.52-2.04L14.52-2.04Q14.52-0.92 15.48-0.92L15.48-0.92Q16.28-0.92 16.96-1.84Q17.64-2.76 18.40-5L18.40-5ZM5.80-0.72Q7-0.72 8.56-2.40Q10.12-4.08 11.64-6.90Q13.16-9.72 14.16-12.92L14.16-12.92L15.56-18.16Q15.32-19.20 14.74-19.70Q14.16-20.20 13.44-20.20L13.44-20.20Q11-20.20 8.84-17.62Q6.68-15.04 5.36-11.24Q4.04-7.44 4.04-4.20L4.04-4.20Q4.04-0.72 5.80-0.72L5.80-0.72Z M29.20-27.32Q29.20-28.52 30.10-29.46Q31-30.40 32.16-30.40L32.16-30.40Q33.08-30.40 33.64-29.80Q34.20-29.20 34.20-28.32L34.20-28.32Q34.20-27.12 33.28-26.20Q32.36-25.28 31.20-25.28L31.20-25.28Q30.32-25.28 29.76-25.86Q29.20-26.44 29.20-27.32L29.20-27.32ZM28-17.16Q28.32-18.12 28.32-18.64L28.32-18.64Q28.32-19.64 27.44-19.64L27.44-19.64Q26.52-19.64 25.80-18.68Q25.08-17.72 24.28-15.56L24.28-15.56L23.72-14.08L22.96-14.08L24-17Q24.80-19.28 26.14-20.20Q27.48-21.12 28.96-21.12L28.96-21.12Q31.60-21.12 31.60-18.60L31.60-18.60Q31.60-17.28 30.96-15.52L30.96-15.52L26.68-3.40Q26.36-2.44 26.36-1.92L26.36-1.92Q26.36-0.92 27.32-0.92L27.32-0.92Q28.16-0.92 28.88-1.84Q29.60-2.76 30.44-5L30.44-5L31-6.48L31.76-6.48L30.72-3.56Q29.92-1.36 28.62-0.40Q27.32 0.56 25.80 0.56L25.80 0.56Q23 0.56 23-1.88L23-1.88Q23-3.04 23.72-5.04L23.72-5.04L28-17.16Z M36.12-0.60Q36.52-0.40 36.90-0.32Q37.28-0.24 37.96-0.24L37.96-0.24Q39.76-0.24 40.88-1.32Q42-2.40 42-4.36L42-4.36Q42-5.64 41.52-6.86Q41.04-8.08 39.92-9.64L39.92-9.64Q38.56-11.48 37.94-12.66Q37.32-13.84 37.32-15.44L37.32-15.44Q37.32-17.08 38.16-18.38Q39-19.68 40.42-20.40Q41.84-21.12 43.52-21.12L43.52-21.12Q45.60-21.12 47-20.34Q48.40-19.56 48.40-17.64L48.40-17.64Q48.40-16.92 47.94-16.24Q47.48-15.56 46.56-15.56L46.56-15.56Q45.88-15.56 45.42-16.04Q44.96-16.52 44.96-17.24L44.96-17.24Q44.96-18.52 46.08-19.92L46.08-19.92Q45.32-20.40 44.08-20.40L44.08-20.40Q42.56-20.40 41.58-19.38Q40.60-18.36 40.60-16.60L40.60-16.60Q40.60-15.56 40.96-14.82Q41.32-14.08 42.28-12.64L42.28-12.64L43-11.60Q44.20-9.76 44.78-8.44Q45.36-7.12 45.36-5.72L45.36-5.72Q45.36-3.92 44.42-2.48Q43.48-1.04 41.90-0.24Q40.32 0.56 38.48 0.56L38.48 0.56Q36.20 0.56 34.64-0.42Q33.08-1.40 33.08-3.40L33.08-3.40Q33.08-4.08 33.46-4.64Q33.84-5.20 34.64-5.20L34.64-5.20Q35.52-5.20 35.96-4.48Q36.40-3.76 36.40-2.68L36.40-2.68Q36.40-2 36.12-0.60L36.12-0.60Z M58.48-19.76L53.84-3.40Q53.72-2.92 53.72-2.52L53.72-2.52Q53.72-1.72 54.20-1.32Q54.68-0.92 55.44-0.92L55.44-0.92Q56.44-0.92 57.30-1.78Q58.16-2.64 59-4.92L59-4.92L59.56-6.48L60.32-6.48L59.48-3.96Q58.64-1.48 57.30-0.46Q55.96 0.56 54 0.56L54 0.56Q52.20 0.56 51.32-0.32Q50.44-1.20 50.44-2.76L50.44-2.76Q50.44-3.80 50.80-5.04L50.80-5.04L55.04-19.76L51.44-19.76L51.64-20.56L55.24-20.56L57-26.64Q59.16-26.72 60.60-27.20L60.60-27.20L58.72-20.56L64-20.56L63.88-19.76L58.48-19.76Z M78.24-21.12Q79.32-21.12 79.96-20.48Q80.60-19.84 80.60-18.84L80.60-18.84Q80.60-17.64 79.76-16.80Q78.92-15.96 77.80-15.96L77.80-15.96Q77.08-15.96 76.64-16.34Q76.20-16.72 76.20-17.40L76.20-17.40Q76.20-18.32 76.68-18.96Q77.16-19.60 78-19.96L78-19.96Q77.84-20.12 77.56-20.12L77.56-20.12Q75.40-20.12 72.86-15.46Q70.32-10.80 68.08-3.16L68.08-3.16L67.28 0L63.80 0L68.60-17.16Q68.88-18.04 68.88-18.72L68.88-18.72Q68.88-19.64 68.04-19.64L68.04-19.64Q67.16-19.64 66.42-18.70Q65.68-17.76 64.92-15.56L64.92-15.56L64.40-14.08L63.64-14.08L64.64-17Q66.08-21.12 69.48-21.12L69.48-21.12Q71.76-21.12 71.76-18.80L71.76-18.80Q71.76-17.68 71.20-15.52L71.20-15.52L69.92-10.48Q72.08-16.28 73.98-18.70Q75.88-21.12 78.24-21.12L78.24-21.12Z M87.00-27.32Q87.00-28.52 87.90-29.46Q88.80-30.40 89.96-30.40L89.96-30.40Q90.88-30.40 91.44-29.80Q92.00-29.20 92.00-28.32L92.00-28.32Q92.00-27.12 91.08-26.20Q90.16-25.28 89.00-25.28L89.00-25.28Q88.12-25.28 87.56-25.86Q87.00-26.44 87.00-27.32L87.00-27.32ZM85.80-17.16Q86.12-18.12 86.12-18.64L86.12-18.64Q86.12-19.64 85.24-19.64L85.24-19.64Q84.32-19.64 83.60-18.68Q82.88-17.72 82.08-15.56L82.08-15.56L81.52-14.08L80.76-14.08L81.80-17Q82.60-19.28 83.94-20.20Q85.28-21.12 86.76-21.12L86.76-21.12Q89.40-21.12 89.40-18.60L89.40-18.60Q89.40-17.28 88.76-15.52L88.76-15.52L84.48-3.40Q84.16-2.44 84.16-1.92L84.16-1.92Q84.16-0.92 85.12-0.92L85.12-0.92Q85.96-0.92 86.68-1.84Q87.40-2.76 88.24-5L88.24-5L88.80-6.48L89.56-6.48L88.52-3.56Q87.72-1.36 86.42-0.40Q85.12 0.56 83.60 0.56L83.60 0.56Q80.80 0.56 80.80-1.88L80.80-1.88Q80.80-3.04 81.52-5.04L81.52-5.04L85.80-17.16Z M106.04-21.12Q108.00-21.12 109.10-19.70Q110.20-18.28 110.20-15.48L110.20-15.48Q110.20-12.24 108.76-8.46Q107.32-4.68 104.64-2.06Q101.96 0.56 98.48 0.56L98.48 0.56Q97.28 0.56 96.38-0.14Q95.48-0.84 95.12-2.12L95.12-2.12L91.72 0.64L91.12 0.36Q91.60-0.64 91.88-1.96L91.88-1.96L98.88-26.68Q99.04-27.20 99.04-27.76L99.04-27.76Q99.04-28.56 98.44-28.94Q97.84-29.32 96.36-29.32L96.36-29.32L96.56-30.16Q98.68-30.20 100.36-30.60Q102.04-31 103.60-31.80L103.60-31.80L98.44-12.92Q100.32-17.24 102.14-19.18Q103.96-21.12 106.04-21.12L106.04-21.12ZM98.44-0.36Q100.56-0.36 102.48-3.02Q104.40-5.68 105.58-9.48Q106.76-13.28 106.76-16.36L106.76-16.36Q106.76-18.08 106.26-18.96Q105.76-19.84 104.88-19.84L104.88-19.84Q103.28-19.84 101.02-16.32Q98.76-12.80 96.96-7.64L96.96-7.64L95.60-2.56Q96.08-1.36 96.78-0.86Q97.48-0.36 98.44-0.36L98.44-0.36Z M131.16-5L131.68-6.48L132.44-6.48L131.44-3.56Q130 0.56 126.60 0.56L126.60 0.56Q125.96 0.56 125.40 0.28Q124.84 0 124.56-0.52L124.56-0.52Q124.32-1.08 124.32-1.76L124.32-1.76Q124.32-2.80 124.88-5.04L124.88-5.04L126.12-10.04Q123.80-4.32 121.60-1.88Q119.40 0.56 116.80 0.56L116.80 0.56Q113.44 0.56 113.44-2.52L113.44-2.52Q113.44-3.80 114.00-5.48L114.00-5.48L117.88-17.16Q118.20-18.12 118.20-18.64L118.20-18.64Q118.20-19.64 117.24-19.64L117.24-19.64Q116.44-19.64 115.70-18.74Q114.96-17.84 114.16-15.56L114.16-15.56L113.64-14.08L112.88-14.08L113.88-17Q115.32-21.12 118.72-21.12L118.72-21.12Q121.52-21.12 121.52-18.64L121.52-18.64Q121.52-17.44 120.88-15.52L120.88-15.52L117.08-4.08Q116.68-2.88 116.68-2.08L116.68-2.08Q116.68-0.72 117.96-0.72L117.96-0.72Q119.52-0.72 121.40-3.02Q123.28-5.32 125.12-9.40Q126.96-13.48 128.32-18.60L128.32-18.60L128.80-20.56Q131.08-20.64 132.44-21.12L132.44-21.12L127.48-3.40Q127.20-2.36 127.20-1.84L127.20-1.84Q127.20-0.92 128.04-0.92L128.04-0.92Q128.92-0.92 129.66-1.86Q130.40-2.80 131.16-5L131.16-5Z M143.88-19.76L139.24-3.40Q139.12-2.92 139.12-2.52L139.12-2.52Q139.12-1.72 139.60-1.32Q140.08-0.92 140.84-0.92L140.84-0.92Q141.84-0.92 142.70-1.78Q143.56-2.64 144.40-4.92L144.40-4.92L144.96-6.48L145.72-6.48L144.88-3.96Q144.04-1.48 142.70-0.46Q141.36 0.56 139.40 0.56L139.40 0.56Q137.60 0.56 136.72-0.32Q135.84-1.20 135.84-2.76L135.84-2.76Q135.84-3.80 136.20-5.04L136.20-5.04L140.44-19.76L136.84-19.76L137.04-20.56L140.64-20.56L142.40-26.64Q144.56-26.72 146.00-27.20L146.00-27.20L144.12-20.56L149.40-20.56L149.28-19.76L143.88-19.76Z M164.48-18.48Q164.48-15.24 160.84-12.80Q157.20-10.36 152.52-8.84L152.52-8.84Q152.08-6.84 152.08-4.96L152.08-4.96Q152.08-1.12 154.84-1.12L154.84-1.12Q158.28-1.12 161.00-5.12L161.00-5.12L161.64-4.80Q160.36-2.60 158.18-1.02Q156.00 0.56 153.60 0.56L153.60 0.56Q151.12 0.56 149.72-0.88Q148.32-2.32 148.32-5.08L148.32-5.08Q148.32-8.12 150.10-11.94Q151.88-15.76 154.92-18.44Q157.96-21.12 161.52-21.12L161.52-21.12Q162.80-21.12 163.64-20.44Q164.48-19.76 164.48-18.48L164.48-18.48ZM160.64-20.36Q159.36-20.36 157.78-18.86Q156.20-17.36 154.82-14.88Q153.44-12.40 152.72-9.60L152.72-9.60Q156.52-10.92 158.16-12.16L158.16-12.16Q159.64-13.32 160.46-14.98Q161.28-16.64 161.28-18.56L161.28-18.56Q161.28-19.64 161.12-20Q160.96-20.36 160.64-20.36L160.64-20.36Z M167.72-11.32L182.16-11.32L181.56-9L167.12-9L167.72-11.32Z M192.68-27.32Q192.68-28.52 193.58-29.46Q194.48-30.40 195.64-30.40L195.64-30.40Q196.56-30.40 197.12-29.80Q197.68-29.20 197.68-28.32L197.68-28.32Q197.68-27.12 196.76-26.20Q195.84-25.28 194.68-25.28L194.68-25.28Q193.80-25.28 193.24-25.86Q192.68-26.44 192.68-27.32L192.68-27.32ZM191.48-17.16Q191.80-18.12 191.80-18.64L191.80-18.64Q191.80-19.64 190.92-19.64L190.92-19.64Q190.00-19.64 189.28-18.68Q188.56-17.72 187.76-15.56L187.76-15.56L187.20-14.08L186.44-14.08L187.48-17Q188.28-19.28 189.62-20.20Q190.96-21.12 192.44-21.12L192.44-21.12Q195.08-21.12 195.08-18.60L195.08-18.60Q195.08-17.28 194.44-15.52L194.44-15.52L190.16-3.40Q189.84-2.44 189.84-1.92L189.84-1.92Q189.84-0.92 190.80-0.92L190.80-0.92Q191.64-0.92 192.36-1.84Q193.08-2.76 193.92-5L193.92-5L194.48-6.48L195.24-6.48L194.20-3.56Q193.40-1.36 192.10-0.40Q190.80 0.56 189.28 0.56L189.28 0.56Q186.48 0.56 186.48-1.88L186.48-1.88Q186.48-3.04 187.20-5.04L187.20-5.04L191.48-17.16Z M206.72-19.76L202.08-3.40Q201.96-2.92 201.96-2.52L201.96-2.52Q201.96-1.72 202.44-1.32Q202.92-0.92 203.68-0.92L203.68-0.92Q204.68-0.92 205.54-1.78Q206.40-2.64 207.24-4.92L207.24-4.92L207.80-6.48L208.56-6.48L207.72-3.96Q206.88-1.48 205.54-0.46Q204.20 0.56 202.24 0.56L202.24 0.56Q200.44 0.56 199.56-0.32Q198.68-1.20 198.68-2.76L198.68-2.76Q198.68-3.80 199.04-5.04L199.04-5.04L203.28-19.76L199.68-19.76L199.88-20.56L203.48-20.56L205.24-26.64Q207.40-26.72 208.84-27.20L208.84-27.20L206.96-20.56L212.24-20.56L212.12-19.76L206.72-19.76Z"/></g>
</svg>
</g></svg></svg>